<svg xmlns="http://www.w3.org/2000/svg" viewBox="0 0 320 64" fill="none">
  <defs>
    <radialGradient id="wm-center" cx="0.5" cy="0.5" r="0.5">
      <stop offset="0" stop-color="#FBF9F4" stop-opacity="1"></stop>
      <stop offset="0.45" stop-color="#D4AC5E" stop-opacity="0.75"></stop>
      <stop offset="1" stop-color="#D4AC5E" stop-opacity="0"></stop>
    </radialGradient>
  </defs>
  <g transform="translate(-0.7 -0.4)" opacity="0.5">
    <g fill="none" stroke="#D4AC5E" stroke-width="0.7" stroke-linejoin="round">
      <rect x="4" y="4" width="56" height="56" transform="rotate(0 32 32)"></rect>
      <rect x="14" y="14" width="36" height="36" transform="rotate(24 32 32)"></rect>
      <rect x="24" y="24" width="16" height="16" transform="rotate(45 32 32)"></rect>
    </g>
  </g>
  <g fill="none" stroke="#2E5BE0" stroke-linejoin="round">
    <rect x="4" y="4" width="56" height="56" stroke-width="1" opacity="0.3" transform="rotate(0 32 32)"></rect>
    <rect x="6.5" y="6.5" width="51" height="51" stroke-width="1.1" opacity="0.45" transform="rotate(6 32 32)"></rect>
    <rect x="9" y="9" width="46" height="46" stroke-width="1.2" opacity="0.6" transform="rotate(12 32 32)"></rect>
    <rect x="11.5" y="11.5" width="41" height="41" stroke-width="1.3" opacity="0.75" transform="rotate(18 32 32)"></rect>
    <rect x="14" y="14" width="36" height="36" stroke-width="1.4" opacity="0.9" transform="rotate(24 32 32)"></rect>
    <rect x="16.5" y="16.5" width="31" height="31" stroke-width="1.5" transform="rotate(30 32 32)"></rect>
    <rect x="19" y="19" width="26" height="26" stroke-width="1.5" transform="rotate(36 32 32)"></rect>
    <rect x="21.5" y="21.5" width="21" height="21" stroke-width="1.4" transform="rotate(42 32 32)"></rect>
    <rect x="24" y="24" width="16" height="16" stroke-width="1.3" transform="rotate(45 32 32)"></rect>
  </g>
  <circle cx="32" cy="32" r="7" fill="url(#wm-center)"></circle>
  <circle cx="32" cy="32" r="1.6" fill="#FBF9F4"></circle>

  <text x="80" y="42" font-family="Geist, Inter, system-ui, -apple-system, sans-serif" font-weight="600" font-size="30" fill="#0A1230" letter-spacing="-0.8">EggProject</text>
  <circle cx="268" cy="38" r="3" fill="#2E5BE0"></circle>
</svg>